<svg width="52" height="34" viewBox="0 0 52 34" fill="none" xmlns="http://www.w3.org/2000/svg">
<rect x="5" y="5" width="47" height="29" rx="2" fill="#BEDAE1"/>
<rect x="1" y="1" width="46" height="28" rx="1" stroke="#1D3251" stroke-width="2"/>
<path d="M23.8001 13.9C21.5301 13.31 20.8001 12.7 20.8001 11.75C20.8001 10.66 21.8101 9.9 23.5001 9.9C25.2801 9.9 25.9401 10.75 26.0001 12H28.2101C28.1401 10.28 27.0901 8.7 25.0001 8.19V6H22.0001V8.16C20.0601 8.58 18.5001 9.84 18.5001 11.77C18.5001 14.08 20.4101 15.23 23.2001 15.9C25.7001 16.5 26.2001 17.38 26.2001 18.31C26.2001 19 25.7101 20.1 23.5001 20.1C21.4401 20.1 20.6301 19.18 20.5201 18H18.3201C18.4401 20.19 20.0801 21.42 22.0001 21.83V24H25.0001V21.85C26.9501 21.48 28.5001 20.35 28.5001 18.3C28.5001 15.46 26.0701 14.49 23.8001 13.9Z" fill="#1D3251"/>
</svg>
