<svg width="54" height="42" viewBox="0 0 54 42" fill="none" xmlns="http://www.w3.org/2000/svg">
<path d="M5 15.4734C5 14.5613 5.61709 13.7647 6.50024 13.5368L33.5002 6.56909C34.7662 6.2424 36 7.19825 36 8.50565V33.3296C36 34.6409 34.7592 35.5975 33.491 35.2637L8.54626 28.6993C7.89345 28.5275 7.37134 28.038 7.15788 27.3976L6.5 25.424L5 24.924V15.4734Z" fill="#BEDAE1"/>
<path d="M1 11.4855C1 11.0267 1.3123 10.6267 1.75746 10.5154L29.7575 3.51541C30.3886 3.35762 31 3.83498 31 4.48555V29.3624C31 30.013 30.3886 30.4904 29.7575 30.3326L1.75746 23.3326C1.3123 23.2213 1 22.8213 1 22.3624V11.4855Z" stroke="#1D3251" stroke-width="2"/>
<path d="M9 28.077C9 27.4684 9.53899 27.001 10.1414 27.087L15.1414 27.8013C15.6341 27.8717 16 28.2936 16 28.7913V36.6161C16 39.1288 13.4308 40.8229 11.1213 39.8331C9.83439 39.2816 9 38.0162 9 36.6161V28.077Z" fill="#BEDAE1"/>
<path d="M6 25.577C6 24.9684 6.53899 24.501 7.14142 24.587L12.1414 25.3013C12.6341 25.3717 13 25.7936 13 26.2913V34.1161C13 36.6288 10.4308 38.3229 8.12128 37.3331C6.83439 36.7816 6 35.5162 6 34.1161V25.577Z" fill="#1D3251"/>
<rect x="40" y="15.924" width="14" height="2" rx="1" fill="#1D3251"/>
<rect x="40" y="7.14995" width="14" height="2" rx="1" transform="rotate(-30.7111 40 7.14995)" fill="#1D3251"/>
<rect width="14" height="2" rx="1" transform="matrix(0.859753 0.51071 0.51071 -0.859753 40 26.698)" fill="#1D3251"/>
</svg>
