<svg width="37" height="44" viewBox="0 0 37 44" fill="none" xmlns="http://www.w3.org/2000/svg">
<path d="M6 5H29.5L32.5 8L36.5 12V44H6V5Z" fill="#F9D64E"/>
<mask id="path-2-inside-1_144_3054" fill="white">
<path fill-rule="evenodd" clip-rule="evenodd" d="M20.7407 0H0V40H32.5926V11.8519L26.6667 5.92593L20.7407 0Z"/>
</mask>
<path d="M0 0V-2H-2V0H0ZM20.7407 0L22.155 -1.41421L21.5692 -2H20.7407V0ZM0 40H-2V42H0V40ZM32.5926 40V42H34.5926V40H32.5926ZM32.5926 11.8519H34.5926V11.0234L34.0068 10.4376L32.5926 11.8519ZM26.6667 5.92593L28.0809 4.51171V4.51171L26.6667 5.92593ZM0 2H20.7407V-2H0V2ZM2 40V0H-2V40H2ZM32.5926 38H0V42H32.5926V38ZM30.5926 11.8519V40H34.5926V11.8519H30.5926ZM34.0068 10.4376L28.0809 4.51171L25.2525 7.34014L31.1784 13.2661L34.0068 10.4376ZM28.0809 4.51171L22.155 -1.41421L19.3265 1.41421L25.2525 7.34014L28.0809 4.51171Z" fill="#1D3251" mask="url(#path-2-inside-1_144_3054)"/>
<path d="M20 0.740738L25.9259 6.66666L31.8519 12.5926H20V0.740738Z" fill="#1D3251"/>
<path d="M16.2 14.7637L18.3888 19.1979L23.2834 19.9091L19.7417 23.3615L20.5775 28.2362L16.2 25.9356L11.8225 28.2362L12.6584 23.3615L9.1167 19.9091L14.0113 19.1979L16.2 14.7637Z" stroke="#1D3251" stroke-width="2" stroke-miterlimit="10" stroke-linecap="square"/>
</svg>
